# xmcd CD database file
#
# Track frame offsets:
#	150
#	16363
#	47937
#	73141
#	99298
#	123031
#	142706
#	181371
#	203276
#	229661
#	254696
#	280934
#	308769
#
# Disc length: 4472 seconds
#
# Revision: 0
# Processed by: cddbd v1.5.1PL0 Copyright (c) Steve Scherf et al.
# Submitted via: CDex 1.51
#
DISCID=ab11760d
DTITLE=MISIA - Best Collection
DYEAR=1900
DGENRE=R&B
TTITLE0=I Miss You ~ 時を越えて~
TTITLE1=Everything
TTITLE2=愛の歌
TTITLE3=つつみ込むように
TTITLE4=陽のあたる場所
TTITLE5=K.I.T
TTITLE6=The Glory Day
TTITLE7=Believe
TTITLE8=Sweetness
TTITLE9=あの日のように
TTITLE10=花/馬/風/月
TTITLE11=One!
TTITLE12=忘れない日々
EXTD=
EXTT0=
EXTT1=
EXTT2=
EXTT3=
EXTT4=
EXTT5=
EXTT6=
EXTT7=
EXTT8=
EXTT9=
EXTT10=
EXTT11=
EXTT12=
PLAYORDER=
